<svg width="20" height="20" viewBox="0 0 20 20" fill="none" xmlns="http://www.w3.org/2000/svg">
<g clip-path="url(#clip0_1035_3582)">
<path d="M4.41835 5.35151H4.16764L3.699 7.69533H4.88699L4.41835 5.35151ZM5.84608 17.6562L5.9466 18.4601C6.01369 18.9985 6.37147 19.5475 6.95979 19.8217C8.07035 18.5993 7.39842 19.3388 8.92692 17.6562H5.84608ZM8.5376 1.53972C8.42839 0.661971 7.67826 0 6.79358 0H0.757773C-0.211537 0 -1 0.788463 -1 1.75777V14.7264C-1 15.6957 -0.211537 16.4843 0.757773 16.4843C4.26046 16.4843 6.78034 16.4843 9.99813 16.4843C10.169 16.289 10.3123 16.1665 10.3183 15.9115C10.3198 15.8476 8.54555 1.60316 8.5376 1.53972ZM6.18533 11.1994C5.87459 11.2633 5.55981 11.0617 5.49587 10.7398L5.12131 8.86706H3.46455L3.08999 10.7398C3.02706 11.0569 2.72149 11.2651 2.40053 11.1994C2.08348 11.1358 1.87754 10.8275 1.94097 10.5099L3.11282 4.65057C3.16768 4.37703 3.40805 4.17954 3.68727 4.17954H4.89821C5.1773 4.17954 5.41768 4.37703 5.47254 4.65057L6.64438 10.5099C6.70807 10.8276 6.502 11.136 6.18495 11.1994H6.18533ZM17.2422 3.55452H9.96546L11.4827 15.7295C11.5096 16.2276 11.3735 16.6964 11.0485 17.0634L8.47909 19.9999H17.2424C18.2117 19.9999 19.0001 19.2114 19.0001 18.2421V5.35138C19.0001 4.38207 18.2117 3.55452 17.2424 3.55452H17.2422ZM17.2422 10.039H17.0857C16.7523 11.1086 16.2236 11.9456 15.6741 12.6054C16.1047 12.999 16.5649 13.3218 17.0225 13.6835C17.2748 13.8855 17.316 14.2539 17.1136 14.5069C16.9118 14.7593 16.5419 14.8003 16.2901 14.5979C15.7929 14.2055 15.3262 13.8769 14.8594 13.4486C14.3927 13.8769 13.965 14.2055 13.4678 14.5979C13.216 14.8005 12.846 14.7595 12.6444 14.5069C12.4417 14.2539 12.4829 13.8855 12.7354 13.6835C13.1931 13.3219 13.6143 12.999 14.0446 12.6054C13.4951 11.9457 13.0054 11.1087 12.6721 10.039H12.5156C12.1917 10.039 11.9297 9.77697 11.9297 9.45298C11.9297 9.12912 12.1916 8.86706 12.5156 8.86706H14.2735V8.28101C14.2735 7.95715 14.5354 7.69508 14.8594 7.69508C15.1833 7.69508 15.4454 7.95702 15.4454 8.28101V8.86706H17.2424C17.5661 8.86706 17.8283 9.12899 17.8283 9.45298C17.8283 9.77684 17.5662 10.039 17.2424 10.039H17.2422ZM13.8973 10.039C14.1503 10.7187 14.4869 11.2688 14.8593 11.7369C15.2317 11.2688 15.6073 10.7185 15.8603 10.039H13.8973Z" fill="white"/>
</g>
<defs>
<clipPath id="clip0_1035_3582">
<rect width="20" height="20" fill="white"/>
</clipPath>
</defs>
</svg>
