<svg width="20" height="20" viewBox="0 0 20 20" fill="none" xmlns="http://www.w3.org/2000/svg">
<g clip-path="url(#clip0_1035_3586)">
<path d="M19.5132 11.3968C19.3085 11.3456 19.104 11.3968 18.925 11.5252C18.2601 12.0902 17.4927 12.5525 16.6489 12.8607C15.8561 13.1689 14.9865 13.323 14.0659 13.323C11.9943 13.323 10.1018 12.4755 8.74642 11.1142C7.39093 9.7531 6.54705 7.85274 6.54705 5.77251C6.54705 4.89933 6.70044 4.05183 6.95625 3.28127C7.23754 2.45946 7.64674 1.71478 8.18374 1.07264C8.41397 0.790138 8.36271 0.379228 8.08142 0.148092C7.90245 0.0196827 7.6978 -0.0316809 7.49325 0.0196827C5.31946 0.610365 3.42696 1.92004 2.07147 3.6665C0.767131 5.38708 0 7.51868 0 9.83014C0 12.6295 1.12527 15.172 2.9666 17.021C4.80804 18.87 7.31428 20 10.1275 20C12.4803 20 14.6543 19.1782 16.3932 17.8172C18.1579 16.4304 19.4366 14.4529 19.9737 12.1929C20.0759 11.8332 19.8714 11.4738 19.5134 11.3966L19.5132 11.3968Z" fill="white"/>
</g>
<defs>
<clipPath id="clip0_1035_3586">
<rect width="20" height="20" fill="white"/>
</clipPath>
</defs>
</svg>
